
<svg xmlns="http://www.w3.org/2000/svg" viewBox="0 0 500 500">
	<style type="text/css">
		.st0{fill-rule:evenodd;clip-rule:evenodd;fill:url(#ftp-2_2_);filter:url(#dropshadow-1);}
		.st1{fill-rule:evenodd;clip-rule:evenodd;fill:url(#rect-21_1_);}
		.st2{fill-rule:evenodd;clip-rule:evenodd;fill:url(#rect-22_1_);}
		.st3{fill-rule:evenodd;clip-rule:evenodd;fill:url(#ftp-20_1_);}
		.st4{fill-rule:evenodd;clip-rule:evenodd;fill:url(#ftp-21_1_);}
		.st5{fill-rule:evenodd;clip-rule:evenodd;fill:url(#ftp-7_2_);filter:url(#dropshadow-2);}
		.st6{fill-rule:evenodd;clip-rule:evenodd;fill:url(#ftp-10_1_);}
	</style>
	<filter filterUnits="objectBoundingBox" id="dropshadow-1">
		<feOffset dx="0" dy="10" in="SourceAlpha" result="dsOffsetOuter1"></feOffset>
		<feGaussianBlur stdDeviation="10" in="dsOffsetOuter1" result="dsBlurOuter1"></feGaussianBlur>
		<feColorMatrix values="0 0 0 0 0   0 0 0 0 0   0 0 0 0 0  0 0 0 0.5 0" type="matrix" in="dsBlurOuter1" result="dsMatrixOuter1"></feColorMatrix>
		<feMerge>
			<feMergeNode in="dsMatrixOuter1"/>
			<feMergeNode in="SourceGraphic"/>
		</feMerge>
	</filter>
	<filter filterUnits="objectBoundingBox" id="dropshadow-2">
		<feOffset dx="0" dy="5" in="SourceAlpha" result="dsOffsetOuter1"></feOffset>
		<feGaussianBlur stdDeviation="12" in="dsOffsetOuter1" result="dsBlurOuter1"></feGaussianBlur>
		<feColorMatrix values="0 0 0 0 0   0 0 0 0 0   0 0 0 0 0  0 0 0 0.5 0" type="matrix" in="dsBlurOuter1" result="dsMatrixOuter1"></feColorMatrix>
		<feMerge>
			<feMergeNode in="dsMatrixOuter1"/>
			<feMergeNode in="SourceGraphic"/>
		</feMerge>
	</filter>
	<linearGradient id="ftp-2_2_" gradientUnits="userSpaceOnUse" x1="204.975" y1="311.4066" x2="204.975" y2="310.4066" gradientTransform="matrix(398.8009 0 0 -354.21 -81520.1875 110361.3203)">
		<stop  offset="0" style="stop-color:#37F07B"/>
		<stop  offset="1" style="stop-color:#0BD02C"/>
	</linearGradient>
	<linearGradient id="rect-21_1_" gradientUnits="userSpaceOnUse" x1="204.4351" y1="311.845" x2="204.4351" y2="310.845" gradientTransform="matrix(196.6064 0 0 -170.4613 -40002.6562 53304.4688)">
		<stop  offset="0" style="stop-color:#F9F9F9"/>
		<stop  offset="1" style="stop-color:#E2E7E0"/>
	</linearGradient>
	<linearGradient id="rect-22_1_" gradientUnits="userSpaceOnUse" x1="184.8977" y1="312.17" x2="184.8977" y2="311.17" gradientTransform="matrix(10.1623 0 0 -123.111 -1509.61 38597.5078)">
		<stop  offset="0" style="stop-color:#F9F9F9"/>
		<stop  offset="1" style="stop-color:#E2E7E0"/>
	</linearGradient>
	<linearGradient id="ftp-20_1_" gradientUnits="userSpaceOnUse" x1="202.2287" y1="312.2063" x2="202.2287" y2="311.2063" gradientTransform="matrix(64 0 0 -119.4046 -12614 37444.8359)">
		<stop  offset="0" style="stop-color:#F9F9F9"/>
		<stop  offset="1" style="stop-color:#E2E7E0"/>
	</linearGradient>
	<linearGradient id="ftp-21_1_" gradientUnits="userSpaceOnUse" x1="182.0059" y1="316.9852" x2="182.0059" y2="315.9852" gradientTransform="matrix(8.9115 0 0 -24.0656 -1539.1049 7814.3774)">
		<stop  offset="0" style="stop-color:#F9F9F9"/>
		<stop  offset="1" style="stop-color:#E2E7E0"/>
	</linearGradient>
	<linearGradient id="ftp-7_2_" gradientUnits="userSpaceOnUse" x1="204.5642" y1="311.6457" x2="204.5642" y2="310.6457" gradientTransform="matrix(223.7326 0 0 -223.0742 -45404.1758 69739.0938)">
		<stop  offset="0" style="stop-color:#FCFDFC"/>
		<stop  offset="1" style="stop-color:#E2E8E2"/>
	</linearGradient>
	<linearGradient id="ftp-10_1_" gradientUnits="userSpaceOnUse" x1="203.8625" y1="312.1299" x2="203.8625" y2="311.1299" gradientTransform="matrix(127.8596 0 0 -127.4834 -25704.2227 40057.3008)">
		<stop  offset="0" style="stop-color:#26E564"/>
		<stop  offset="1" style="stop-color:#05CC1B"/>
	</linearGradient>
	<path id="ftp-2_1_" class="st0" d="M79.1,58h289.8c30.1,0,54.5,24.4,54.5,54.5v245.2c0,30.1-24.4,54.5-54.5,54.5H79.1 c-30.1,0-54.5-24.4-54.5-54.5V112.5C24.6,82.4,49,58,79.1,58z"/>
	<path id="rect-21" class="st1" d="M115.3,147h150.6c12.7,0,23,10.3,23,23v124.5c0,12.7-10.3,23-23,23H115.3 c-12.7,0-23-10.3-23-23V170C92.3,157.3,102.6,147,115.3,147z"/>
	<rect id="rect-22" x="364.3" y="166" class="st2" width="10.2" height="123.1"/>
	<polygon id="ftp-20" class="st3" points="296.6,209.5 298,285.4 360.6,285.4 360.6,166 "/>
	<path id="ftp-21" class="st4" d="M79.6,188.5c2.5-3,7.6-2.5,7.6-2.5l0,24c0,0-5,0.5-7.7-2.5c-1.4-1.6-1.2-4.7-1.2-8.1 C78.5,195.2,77.9,190.6,79.6,188.5z"/>
	<ellipse id="ftp-7_1_" class="st5" cx="363.5" cy="330.5" rx="111.9" ry="111.5"/>
	<path id="ftp-10" class="st6" d="M307.9,317.4c-7.4-13.4-10.3-24.2-10.3-31.5c0-7.3,1.8-9.4,3.6-11.1 c1.8-1.7,10.1-6.8,11.5-7.7c1.4-0.9,6.8-2.8,10.1,2c3.4,4.8,9.7,14.5,14,20.9c6.8,9.1,1.4,13.1-0.4,15.5c-3.2,4.4-5.1,5.5-5.1,10.9 c0,5.4,15.2,20.8,18.8,24.6c3.6,3.8,18.7,17,23.4,17.7c4.7,0.7,11-4.3,12.4-5.5c6.8-5.2,10.7-1.3,13.8,0.5 c3.1,1.7,17.4,10.6,21.8,13.5c4.1,3,3.9,7.6,3.9,7.6s-8.6,13.5-9.6,15.2c-1.3,1.9-4.4,3.5-11.4,3.5c-7,0-14.5-1.3-32.2-11 c-14.5-8-28.4-20.5-35.6-27.8C329.1,347.3,316.4,332.7,307.9,317.4z"/>
</svg>
