
<svg xmlns="http://www.w3.org/2000/svg" viewBox="0 0 55 55">
	<style type="text/css">
		.st0{fill-rule:evenodd;clip-rule:evenodd;fill:url(#ftp-2_2_);}
		.st1{fill-rule:evenodd;clip-rule:evenodd;fill:url(#rect-21_1_);}
		.st2{fill-rule:evenodd;clip-rule:evenodd;fill:url(#rect-22_1_);}
		.st3{fill-rule:evenodd;clip-rule:evenodd;fill:url(#ftp-20_1_);}
		.st4{fill-rule:evenodd;clip-rule:evenodd;fill:url(#ftp-21_1_);}
		.st5{fill-rule:evenodd;clip-rule:evenodd;fill:url(#ftp-7_2_);}
		.st6{fill-rule:evenodd;clip-rule:evenodd;fill:url(#ftp-10_1_);}
	</style>
	<linearGradient id="ftp-2_2_" gradientUnits="userSpaceOnUse" x1="217.4422" y1="-268.5907" x2="217.4422" y2="-268.4776" gradientTransform="matrix(398.8009 0 0 354.21 -86691.6016 95143.2891)">
		<stop  offset="0" style="stop-color:#37F07B"/>
		<stop  offset="1" style="stop-color:#0BD02C"/>
	</linearGradient>
	<path id="ftp-2_1_" class="st0" d="M8.2,5.8h32.8c3.4,0,6.2,2.8,6.2,6.2v27.7c0,3.4-2.8,6.2-6.2,6.2H8.2c-3.4,0-6.2-2.8-6.2-6.2V12
		C2,8.6,4.8,5.8,8.2,5.8z"/>
	<linearGradient id="rect-21_1_" gradientUnits="userSpaceOnUse" x1="216.5053" y1="-269.6904" x2="216.5053" y2="-269.5773" gradientTransform="matrix(196.6064 0 0 170.4613 -42545.5391 45987.6328)">
		<stop  offset="0" style="stop-color:#F9F9F9"/>
		<stop  offset="1" style="stop-color:#E2E7E0"/>
	</linearGradient>
	<path id="rect-21" class="st1" d="M12.3,15.9h17c1.4,0,2.6,1.2,2.6,2.6v14.1c0,1.4-1.2,2.6-2.6,2.6h-17c-1.4,0-2.6-1.2-2.6-2.6V18.5
		C9.7,17,10.8,15.9,12.3,15.9z"/>
	<linearGradient id="rect-22_1_" gradientUnits="userSpaceOnUse" x1="164.305" y1="-270.4773" x2="164.305" y2="-270.3643" gradientTransform="matrix(10.1623 0 0 123.111 -1628.7198 33316.7344)">
		<stop  offset="0" style="stop-color:#F9F9F9"/>
		<stop  offset="1" style="stop-color:#E2E7E0"/>
	</linearGradient>
	<rect id="rect-22" x="40.4" y="18" class="st2" width="1.2" height="13.9"/>
	<linearGradient id="ftp-20_1_" gradientUnits="userSpaceOnUse" x1="210.4591" y1="-270.5544" x2="210.4591" y2="-270.4413" gradientTransform="matrix(64 0 0 119.4046 -13433 32323.4375)">
		<stop  offset="0" style="stop-color:#F9F9F9"/>
		<stop  offset="1" style="stop-color:#E2E7E0"/>
	</linearGradient>
	<polygon id="ftp-20" class="st3" points="32.8,22.9 32.9,31.5 40,31.5 40,18 "/>
	<linearGradient id="ftp-21_1_" gradientUnits="userSpaceOnUse" x1="185.2156" y1="-281.4099" x2="185.2156" y2="-281.2969" gradientTransform="matrix(8.9115 0 0 24.0656 -1641.9543 6792.5566)">
		<stop  offset="0" style="stop-color:#F9F9F9"/>
		<stop  offset="1" style="stop-color:#E2E7E0"/>
	</linearGradient>
	<path id="ftp-21" class="st4" d="M8.2,20.5c0.3-0.3,0.9-0.3,0.9-0.3V23c0,0-0.6,0.1-0.9-0.3c-0.2-0.2-0.1-0.5-0.1-0.9
		C8.1,21.3,8,20.8,8.2,20.5z"/>
	<linearGradient id="ftp-7_2_" gradientUnits="userSpaceOnUse" x1="216.0616" y1="-269.578" x2="216.0616" y2="-269.4651" gradientTransform="matrix(223.7326 0 0 223.0742 -48299.6992 60159.9023)">
		<stop  offset="0" style="stop-color:#FCFDFC"/>
		<stop  offset="1" style="stop-color:#E2E8E2"/>
	</linearGradient>
	<ellipse id="ftp-7_1_" class="st5" cx="40.3" cy="36.6" rx="12.6" ry="12.6"/>
	<linearGradient id="ftp-10_1_" gradientUnits="userSpaceOnUse" x1="214.2467" y1="-271.0879" x2="214.2467" y2="-270.9749" gradientTransform="matrix(127.8596 0 0 127.4834 -27353.3965 34588.5156)">
		<stop  offset="0" style="stop-color:#26E564"/>
		<stop  offset="1" style="stop-color:#05CC1B"/>
	</linearGradient>
	<path id="ftp-10" class="st6" d="M34,35.1c-0.8-1.5-1.2-2.7-1.2-3.6c0-0.8,0.2-1.1,0.4-1.3c0.2-0.2,1.1-0.8,1.3-0.9
		c0.2-0.1,0.8-0.3,1.1,0.2c0.4,0.5,1.1,1.6,1.6,2.4c0.8,1,0.2,1.5,0,1.8c-0.4,0.5-0.6,0.6-0.6,1.2c0,0.6,1.7,2.4,2.1,2.8
		c0.4,0.4,2.1,1.9,2.6,2c0.5,0.1,1.2-0.5,1.4-0.6c0.8-0.6,1.2-0.1,1.6,0.1c0.4,0.2,2,1.2,2.5,1.5c0.5,0.3,0.4,0.9,0.4,0.9
		s-1,1.5-1.1,1.7c-0.1,0.2-0.5,0.4-1.3,0.4c-0.8,0-1.6-0.1-3.6-1.2c-1.6-0.9-3.2-2.3-4-3.1C36.4,38.5,35,36.8,34,35.1z"/>
</svg>
