<svg xmlns="http://www.w3.org/2000/svg" width="0" height="0">

	<svg id="icon-search" viewBox="0 0 13 13">
		<path d="M11.8,10.3L9.3,7.9C9.7,7.2,10,6.4,10,5.5C10,3,8,1,5.5,1S1,3,1,5.5S3,10,5.5,10c0.9,0,1.7-0.3,2.4-0.7l2.5,2.5 c0.3,0.3,0.8,0.3,1.2,0l0.3-0.3C12.1,11.2,12.1,10.7,11.8,10.3z M2.8,5.5C2.8,4,4,2.8,5.5,2.8S8.2,4,8.2,5.5S7,8.2,5.5,8.2 S2.8,7,2.8,5.5z"/>
	</svg>

	<svg id="icon-offline" viewBox="0 0 13 13">
		<style type="text/css">
			.st0{fill:none;stroke:#fff;stroke-width:1;stroke-linecap:round;stroke-linejoin:round;}
		</style>
		<circle class="st0" cx="6.5" cy="6.5" r="4.5"/>
	</svg>

	<svg id="icon-online" viewBox="0 0 13 13">
		<style type="text/css">
			.st0{fill:#4a4;stroke:#4a4;stroke-width:1;stroke-linecap:round;stroke-linejoin:round;}
		</style>
		<circle class="st0" cx="6.5" cy="6.5" r="4.5"/>
	</svg>

	<svg id="icon-in" viewBox="0 0 9 9">
		<polygon points="1,5 5.1,8.7 5.1,6 9,6 9,4 5.1,4 5.1,1.3 "/>
	</svg>

	<svg id="icon-out" viewBox="0 0 9 9">
		<polygon points="9,5 4.9,1.3 4.9,4 1,4 1,6 4.9,6 4.9,8.7 "/>
	</svg>

	<svg id="icon-info" viewBox="0 0 13 13">
		<path d="M5.7,3.9c0-0.4,0.2-0.6,0.6-0.6h0.4c0.5,0,0.7,0.2,0.7,0.6v0.4c0,0.4-0.2,0.6-0.6,0.6H6.3c-0.4,0-0.6-0.2-0.6-0.6V3.9 L5.7,3.9z"/>
		<path d="M8.2,9.8H4.8V8.9h0.8V6.5H4.8V5.7h2.4v3.2h0.8v0.8H8.2z"/>
		<path d="M6.5,0C2.9,0,0,2.9,0,6.5S2.9,13,6.5,13S13,10.1,13,6.5S10.1,0,6.5,0z M6.5,11.8c-2.9,0-5.3-2.4-5.3-5.3s2.4-5.3,5.3-5.3 s5.3,2.4,5.3,5.3S9.4,11.8,6.5,11.8z"/>
	</svg>

	<svg id="icon-camera" viewBox="0 0 13 13">
		<path d="M11.5,3c0,0-0.1,0-0.1,0c-0.1,0-0.2,0-0.3,0.1L8.8,5.4v-1V3.8c0-0.6-0.5-1-1-1H7.1H2.9H2.3c-0.6,0-1,0.5-1,1v0.7v4.1v0.7 c0,0.6,0.5,1,1,1h0.7h4.1h0.7c0.6,0,1-0.5,1-1V8.6v-1l2.4,2.4c0.1,0.1,0.2,0.1,0.3,0.1c0,0,0.1,0,0.1,0c0.1-0.1,0.2-0.2,0.2-0.3 V3.3C11.8,3.1,11.7,3,11.5,3z"/>
	</svg>

	<svg id="icon-camera-off" viewBox="0 0 500 500">
		<path d="M98,90c-39.8,0-72,32.2-72,72v176c0,31.6,20.4,58.5,48.8,68.2L254.4,90H98z"/>
		<path d="M464.2,99.2c-2-0.8-4.2-1.2-6.2-1.2c-4.2,0-8.2,1.5-11.2,4.8L346,203.2V162c0-8.2-1.4-16.1-3.9-23.4l39.1-68.9 c2.3-4,0.9-9.2-3.2-11.5l-28.9-16.4c-4-2.3-9.2-0.9-11.5,3.2l-30.3,53.3c-0.1,0-0.1-0.1-0.2-0.1L130.1,410h0.2l-26.8,47.1 c-2.3,4-0.9,9.2,3.2,11.5l28.9,16.4c4,2.3,9.2,0.9,11.5-3.2l40.8-71.8H274c39.8,0,72-32.2,72-72v-41.5l100.8,100.8 c3,3.2,7,4.8,11.2,4.8c2,0,4.2-0.5,6.2-1.2c5.8-2.5,9.8-8.2,9.8-14.8V114C474,107.5,470,101.8,464.2,99.2z"/>
	</svg>

	<svg id="icon-phone" viewBox="0 0 13 13">
		<path d="M9.1,7.6C8.3,8.3,8.3,9.1,7.6,9.1S6.1,8.3,5.4,7.6S3.9,6.1,3.9,5.4s0.7-0.7,1.5-1.5S3.9,1,3.2,1S1,3.2,1,3.2 c0,1.5,1.5,4.4,2.9,5.9S8.3,12,9.8,12c0,0,2.2-1.5,2.2-2.2C12,9.1,9.8,6.9,9.1,7.6z"/>
	</svg>

	<svg id="icon-user" viewBox="0 0 23 23">
		<path d="M11.5,0C5.1,0,0,5.2,0,11.5C0,14.4,1,17,2.7,19c0.4-0.4,0.8-0.7,1.4-0.9c1.7-0.8,2.5-0.9,3.4-1.1c1-0.2,1.2-0.5,1.3-1.4
			c0.1-0.9,0.2-1,0.2-1.4c-0.6-0.4-0.7-1.1-0.8-1.5c0-0.4-0.2-0.8-0.2-1.2c-0.5,0.1-0.5-0.5-0.6-0.9c-0.1-0.1-0.4-1-0.4-1.5
			C7.1,8.7,7.2,8.5,7.5,8.7C7.2,7.7,7.3,6.9,7.3,6.3C7.2,5.7,6.9,4.2,8,3.9C8.4,3.8,8.6,3.2,9.3,3s1.4-0.7,2.2-0.7
			c0.8,0,1.5,0.4,2.2,0.7c0.7,0.2,0.9,0.8,1.3,0.9c1.1,0.3,0.8,1.8,0.7,2.4c-0.1,0.6,0,1.4-0.3,2.4c0.3-0.2,0.5,0,0.4,0.5
			c-0.1,0.5-0.4,1.3-0.4,1.5c-0.2,0.4-0.1,1-0.6,0.9c0,0.4-0.1,0.8-0.2,1.2c0,0.4-0.2,1.1-0.8,1.5c0,0.4,0.1,0.5,0.2,1.4
			s0.4,1.2,1.3,1.4c1,0.2,2,0.4,3.4,1.1c0.6,0.2,1.1,0.5,1.4,0.9c1.7-2,2.7-4.6,2.7-7.4C23,5.2,17.9,0,11.5,0z"/>
	</svg>

	<svg id="icon-hangup" viewBox="0 0 23 23">
		<path d="M7.3,14.6c0-1.7-0.8-2.5,0-3.4s2.5-0.8,4.2-0.8s3.4,0,4.2,0.8c0.8,0.8,0,1.7,0,3.4s5.1,1.7,5.9,0.8
			c0.8-0.8,0-5.1,0-5.1C19.9,8.7,14.8,7,11.5,7S3.1,8.7,1.4,10.4c0,0-0.8,4.2,0,5.1C2.2,16.3,7.3,16.3,7.3,14.6z"/>
	</svg>

	<svg id="icon-mic-on" viewBox="0 0 23 23">
		<path d="M18.1,10v1.5c0,3.4-2.6,6.2-5.9,6.6v1.5h2.9c0.4,0,0.7,0.3,0.7,0.7c0,0.4-0.3,0.7-0.7,0.7H7.8
			c-0.4,0-0.7-0.3-0.7-0.7c0-0.4,0.3-0.7,0.7-0.7h2.9v-1.5c-3.3-0.4-5.9-3.2-5.9-6.6V10c0-0.4,0.3-0.7,0.7-0.7C6,9.3,6.4,9.6,6.4,10
			v1.5c0,2.8,2.3,5.1,5.1,5.1s5.1-2.3,5.1-5.1V10c0-0.4,0.3-0.7,0.7-0.7C17.8,9.3,18.1,9.6,18.1,10z M15.2,5.6v5.9
			c0,2-1.7,3.7-3.7,3.7s-3.7-1.7-3.7-3.7V5.6c0-2,1.7-3.7,3.7-3.7S15.2,3.6,15.2,5.6z"/>
	</svg>

	<svg id="icon-mic-mute" viewBox="0 0 23 23">
		<path class="st1" d="M6.5,12.8l-1.2,1.2c-0.3-0.8-0.5-1.6-0.5-2.4V10c0-0.4,0.3-0.7,0.7-0.7C6,9.3,6.4,9.6,6.4,10v1.5
			C6.4,11.9,6.4,12.4,6.5,12.8z M19.3,5.9L15.2,10v1.5c0,2-1.6,3.7-3.7,3.7c-0.4,0-0.9-0.1-1.2-0.2L9.2,16c0.7,0.4,1.5,0.6,2.3,0.6
			c2.8,0,5.1-2.3,5.1-5.1V10c0-0.4,0.3-0.7,0.7-0.7c0.4,0,0.7,0.3,0.7,0.7v1.5c0,3.4-2.6,6.2-5.9,6.5v1.5h2.9c0.4,0,0.7,0.3,0.7,0.7
			c0,0.4-0.3,0.7-0.7,0.7H7.8c-0.4,0-0.7-0.3-0.7-0.7c0-0.4,0.3-0.7,0.7-0.7h2.9V18c-1-0.1-1.9-0.4-2.7-0.9L5.2,20
			c-0.1,0.1-0.4,0.1-0.5,0l-0.9-0.9c-0.1-0.1-0.1-0.4,0-0.5L17.8,4.4c0.1-0.1,0.4-0.1,0.5,0l0.9,0.9C19.4,5.5,19.4,5.8,19.3,5.9z
			 M14.9,4.4l-7.1,7.1V5.6c0-2,1.6-3.7,3.7-3.7C13.1,2,14.4,3,14.9,4.4z"/>
	</svg>

	<svg id="icon-cancel" viewBox="0 0 13 13">
		<polygon points="11.4,2.6 10.4,1.6 6.5,5.4 2.6,1.6 1.6,2.6 5.4,6.5 1.6,10.4 2.6,11.4 6.5,7.6 10.4,11.4 11.4,10.4 7.6,6.5 "/>
	</svg>

	<svg id="icon-sidebar" viewBox="0 0 23 23">
		<path d="M13,22H5.4C3.5,22,2,20.5,2,18.6V4.4C2,2.5,3.5,1,5.4,1H13v2.8H5.4c-0.3,0-0.6,0.3-0.6,0.6v14.2c0,0.3,0.3,0.6,0.6,0.6H13
			L13,22L13,22z"/>
		<polygon points="21,10 13,10 13,6.2 6.4,11.5 13,16.8 13,13 21,13 "/>
	</svg>

</svg>