<svg xmlns="http://www.w3.org/2000/svg" width="0" height="0">

	<svg id="icon-search" viewBox="0 0 500 500">
		<path d="M332.4,217c0-63.6-51.8-115.4-115.4-115.4S101.6,153.4,101.6,217S153.4,332.4,217,332.4S332.4,280.7,332.4,217 L332.4,217z M464.3,431.4c0,18-14.9,33-33,33c-8.8,0-17.3-3.6-23.2-9.8l-88.4-88.1c-30.1,20.9-66.2,31.9-102.8,31.9 c-100.2,0-181.4-81.2-181.4-181.4S116.8,35.7,217,35.7S398.4,116.8,398.4,217c0,36.6-11.1,72.7-31.9,102.8l88.4,88.4 C460.7,414.1,464.3,422.6,464.3,431.4L464.3,431.4z"/>
	</svg>

	<svg id="icon-offline" viewBox="0 0 500 500">
		<style type="text/css">
			.st0{fill:none;stroke:#fff;stroke-width:70;stroke-linecap:round;}
		</style>
		<circle class="st0" cx="250" cy="250" r="170"/>
	</svg>

	<svg id="icon-online" viewBox="0 0 500 500">
		<style type="text/css">
			.st0{fill:#4a4;stroke:#4a4;stroke-width:70;stroke-linecap:round;}
		</style>
		<circle class="st0" cx="250" cy="250" r="170"/>
	</svg>

	<svg id="icon-in" viewBox="0 0 500 500">
		<polygon points="21.5,250 255.6,462.6 255.6,309 478.5,309 478.5,191 255.6,191 255.6,37.4 "/>
	</svg>

	<svg id="icon-out" viewBox="0 0 500 500">
		<polygon points="478.5,250 264.4,67.4 264.4,191 21.5,191 21.5,309 264.4,309 264.4,432.6 "/>
	</svg>

	<svg id="icon-info" viewBox="0 0 500 500">
		<path d="M221.1,156c0-11.9,9.8-21.7,21.7-21.7h14.5c11.9,0,21.7,9.8,21.7,21.7v14.5c0,11.9-9.8,21.7-21.7,21.7h-14.5 c-11.9,0-21.7-9.8-21.7-21.7V156z"/>
		<path d="M307.8,365.7H192.2v-28.9h28.9V250h-28.9v-28.9h86.7v115.7h28.9V365.7z"/>
		<path d="M250,18.7C122.2,18.7,18.7,122.2,18.7,250S122.2,481.3,250,481.3S481.3,377.8,481.3,250S377.8,18.7,250,18.7z M250,437.9 c-103.8,0-187.9-84.1-187.9-187.9S146.2,62.1,250,62.1S437.9,146.2,437.9,250S353.8,437.9,250,437.9z"/>
	</svg>

	<svg id="icon-camera" viewBox="0 0 500 500">
		<path d="M464.2,99.2c-2-0.8-4.2-1.2-6.2-1.2c-4.2,0-8.2,1.5-11.2,4.8L346,203.2V162v-27.9c0-24.2-19.8-44.1-44.1-44.1H274H98H70.1 C45.8,90,26,109.8,26,134.1V162v176v27.9c0,24.2,19.8,44.1,44.1,44.1H98h176h27.9c24.2,0,44.1-19.8,44.1-44.1V338v-41.5l100.8,100.8 c3,3.2,7,4.8,11.2,4.8c2,0,4.2-0.5,6.2-1.2c5.8-2.5,9.8-8.2,9.8-14.8V114C474,107.5,470,101.8,464.2,99.2z"/>
	</svg>

	<svg id="icon-camera-off" viewBox="0 0 500 500">
		<path d="M98,90c-39.8,0-72,32.2-72,72v176c0,31.6,20.4,58.5,48.8,68.2L254.4,90H98z"/>
		<path d="M464.2,99.2c-2-0.8-4.2-1.2-6.2-1.2c-4.2,0-8.2,1.5-11.2,4.8L346,203.2V162c0-8.2-1.4-16.1-3.9-23.4l39.1-68.9 c2.3-4,0.9-9.2-3.2-11.5l-28.9-16.4c-4-2.3-9.2-0.9-11.5,3.2l-30.3,53.3c-0.1,0-0.1-0.1-0.2-0.1L130.1,410h0.2l-26.8,47.1 c-2.3,4-0.9,9.2,3.2,11.5l28.9,16.4c4,2.3,9.2,0.9,11.5-3.2l40.8-71.8H274c39.8,0,72-32.2,72-72v-41.5l100.8,100.8 c3,3.2,7,4.8,11.2,4.8c2,0,4.2-0.5,6.2-1.2c5.8-2.5,9.8-8.2,9.8-14.8V114C474,107.5,470,101.8,464.2,99.2z"/>
	</svg>

	<svg id="icon-phone" viewBox="0 0 500 500">
		<path d="M359.2,296.8C328,328,328,359.2,296.8,359.2s-62.4-31.2-93.6-62.4s-62.4-62.4-62.4-93.6s31.2-31.2,62.4-62.4 S140.8,16,109.6,16S16,109.6,16,109.6c0,62.4,64.1,188.9,124.8,249.6S328,484,390.4,484c0,0,93.6-62.4,93.6-93.6 S390.4,265.6,359.2,296.8z"/>
	</svg>

	<svg id="icon-user" viewBox="0 0 500 500">
		<path d="M250,0C111.9,0,0,111.9,0,250c0,61.7,22.4,118.2,59.4,161.8c7.7-8,17.8-14.8,30.8-19.5c37.6-17.4,53.4-20.2,74.2-23.4 c20.8-3.3,26-11.1,28.6-29.9c2.6-18.9,4.6-21.5,4.6-30.6c-12.4-8.5-16.3-24.1-16.9-32.6c-0.7-8.5-3.9-17.6-3.3-25.7 c-11.7,2.6-10.3-11.9-13.7-19.9c-1.3-3-7.8-21.5-9.1-31.9s2-15,9.1-10.4c-6.5-20.2-4.6-38.4-5.9-51.4c-1.3-13-7.8-45.6,16.3-52.1 c8.5-2.8,13.8-15,28.5-19.9s29.8-14.2,47.4-14.2s32.7,9.3,47.4,14.2c14.7,4.9,20,17.1,28.5,19.9c24.1,6.5,17.6,39.1,16.3,52.1 c-1.3,13,0.7,31.2-5.9,51.4c7.2-4.6,10.4,0,9.1,10.4s-7.8,28.9-9.1,31.9c-3.4,8-2,22.5-13.7,19.9c0.7,8.1-2.6,17.3-3.3,25.7 c-0.7,8.5-4.6,24.1-16.9,32.6c0,9.1,2,11.7,4.6,30.6s7.8,26.7,28.6,29.9c20.8,3.3,43.6,8.5,74.2,23.4c13,4.7,23.1,11.5,30.8,19.5 c37-43.6,59.4-100.1,59.4-161.8C500,111.9,388.1,0,250,0z"/>
	</svg>

	<svg id="icon-hangup" viewBox="0 0 500 500">
		<path d="M162,314.6c0-35.2-17.6-52.8,0-70.4s52.8-17.6,88-17.6c35.2,0,70.4,0,88,17.6c17.6,17.6,0,35.2,0,70.4 s105.6,35.2,123.2,17.6c17.6-17.6,0-105.6,0-105.6C426,191.4,318.5,156.2,250,156.2c-68.5,0-176,35.2-211.2,70.4 c0,0-17.6,88,0,105.6C56.4,349.8,162,349.8,162,314.6z"/>
	</svg>

	<svg id="icon-mic-on" viewBox="0 0 500 500">
		<path d="M406.6,215.2V250c0,80.5-60.9,146.8-139.2,155.5v35.9H337c9.5,0,17.4,7.9,17.4,17.4c0,9.5-7.9,17.4-17.4,17.4H163 c-9.5,0-17.4-7.9-17.4-17.4c0-9.5,7.9-17.4,17.4-17.4h69.6v-35.9C154.3,396.8,93.4,330.5,93.4,250v-34.8c0-9.5,7.9-17.4,17.4-17.4 s17.4,7.9,17.4,17.4V250c0,67.2,54.7,121.8,121.8,121.8S371.8,317.2,371.8,250v-34.8c0-9.5,7.9-17.4,17.4-17.4 C398.7,197.8,406.6,205.7,406.6,215.2z M337,110.8V250c0,47.9-39.2,87-87,87s-87-39.2-87-87V110.8c0-47.9,39.2-87,87-87 S337,62.9,337,110.8z"/>
	</svg>

	<svg id="icon-mic-mute" viewBox="0 0 500 500">
		<path d="M132.6,280.6L105.2,308c-7.3-17.9-11.4-37.4-11.4-58v-34.7c0-9.5,7.9-17.4,17.4-17.4s17.4,7.9,17.4,17.4V250 C128.5,260.6,130.2,270.9,132.6,280.6z M434.6,117.4l-97.9,97.9V250c0,47.7-39,86.8-86.8,86.8c-10.3,0-20.3-1.9-29.6-5.2l-26,26 c16.5,8.7,35.5,13.8,55.6,13.8c67,0,121.5-54.5,121.5-121.5v-34.7c0-9.5,7.9-17.4,17.4-17.4c9.5,0,17.4,7.9,17.4,17.4V250 c0,80.2-60.7,146.4-138.8,155.1v35.8h69.4c9.5,0,17.4,7.9,17.4,17.4s-7.9,17.4-17.4,17.4H163.2c-9.5,0-17.4-7.9-17.4-17.4 s7.9-17.4,17.4-17.4h69.4v-35.8c-23-2.4-44.7-10.3-63.7-22L100.1,452c-3.5,3.5-8.9,3.5-12.5,0l-22.2-22.2c-3.5-3.5-3.5-8.9,0-12.5 L399.9,82.7c3.5-3.5,8.9-3.5,12.5,0l22.2,22.2C438.1,108.5,438.1,113.9,434.6,117.4z M331.6,81.6L163.2,250V111.2 c0-47.7,39-86.8,86.8-86.8C287.4,24.4,319.4,48.6,331.6,81.6z"/>
	</svg>

	<svg id="icon-sidebar" viewBox="0 0 500 500">
		<path d="M286.1,456.2H126.2C89.7,456.2,60,426.5,60,390V110c0-36.5,29.7-66.2,66.2-66.2h159.9v55H126.2c-6.1,0-11.2,5.1-11.2,11.2 V390c0,6.1,5.1,11.2,11.2,11.2h159.9V456.2z"/>
		<polygon points="440,215 288.3,215 288.3,145.2 158.8,250 288.3,354.8 288.3,285 440,285 "/>
	</svg>

</svg>