<svg xmlns="http://www.w3.org/2000/svg" width="0" height="0">

	<svg id="icon-offline" viewBox="0 0 500 500">
		<style type="text/css">
			.st0{fill:none;stroke:#fff;stroke-width:70;stroke-linecap:round;}
		</style>
		<circle class="st0" cx="250" cy="250" r="170"/>
	</svg>

	<svg id="icon-online" viewBox="0 0 500 500">
		<style type="text/css">
			.st0{fill:#4a4;stroke:#4a4;stroke-width:70;stroke-linecap:round;}
		</style>
		<circle class="st0" cx="250" cy="250" r="170"/>
	</svg>

	<svg id="icon-info" viewBox="0 0 500 500">
		<path d="M221.1,156c0-11.9,9.8-21.7,21.7-21.7h14.5c11.9,0,21.7,9.8,21.7,21.7v14.5c0,11.9-9.8,21.7-21.7,21.7h-14.5 c-11.9,0-21.7-9.8-21.7-21.7V156z"/>
		<path d="M307.8,365.7H192.2v-28.9h28.9V250h-28.9v-28.9h86.7v115.7h28.9V365.7z"/>
		<path d="M250,18.7C122.2,18.7,18.7,122.2,18.7,250S122.2,481.3,250,481.3S481.3,377.8,481.3,250S377.8,18.7,250,18.7z M250,437.9 c-103.8,0-187.9-84.1-187.9-187.9S146.2,62.1,250,62.1S437.9,146.2,437.9,250S353.8,437.9,250,437.9z"/>
	</svg>

	<svg id="icon-camera" viewBox="0 0 500 500">
		<path d="M464.2,99.2c-2-0.8-4.2-1.2-6.2-1.2c-4.2,0-8.2,1.5-11.2,4.8L346,203.2V162v-27.9c0-24.2-19.8-44.1-44.1-44.1H274H98H70.1 C45.8,90,26,109.8,26,134.1V162v176v27.9c0,24.2,19.8,44.1,44.1,44.1H98h176h27.9c24.2,0,44.1-19.8,44.1-44.1V338v-41.5l100.8,100.8 c3,3.2,7,4.8,11.2,4.8c2,0,4.2-0.5,6.2-1.2c5.8-2.5,9.8-8.2,9.8-14.8V114C474,107.5,470,101.8,464.2,99.2z"/>
	</svg>

	<svg id="icon-phone" viewBox="0 0 500 500">
		<path d="M359.2,296.8C328,328,328,359.2,296.8,359.2s-62.4-31.2-93.6-62.4s-62.4-62.4-62.4-93.6s31.2-31.2,62.4-62.4 S140.8,16,109.6,16S16,109.6,16,109.6c0,62.4,64.1,188.9,124.8,249.6S328,484,390.4,484c0,0,93.6-62.4,93.6-93.6 S390.4,265.6,359.2,296.8z"/>
	</svg>

</svg>